<svg xmlns="http://www.w3.org/2000/svg" viewBox="0 0 143 136" width="143" height="136" role="img" aria-label="PurrFuel logo">
  <title>PurrFuel</title>
  <circle cx="71.5" cy="40" r="34" fill="#ff6f3c"/><circle cx="71.5" cy="40" r="29.5" fill="none" stroke="#fff" stroke-opacity=".55" stroke-width="1.5" stroke-dasharray="2 3.2"/>
  <g transform="translate(71.5 40)"><path d="M-14 14 V-12 L-6 -5 H6 L14 -12 V14 Q0 22 -14 14Z" fill="#fff"/><circle cx="-5.5" cy="3" r="2.4" fill="#ff6f3c"/><circle cx="5.5" cy="3" r="2.4" fill="#ff6f3c"/><path d="M-2 9 L0 11 L2 9Z" fill="#ff6f3c"/></g>
  <g transform="translate(13.64 106)"><path d="M9.153 -6.804H6.291V0.0H1.674V-18.954H9.153Q11.421 -18.954 12.986999999999998 -18.171Q14.552999999999999 -17.387999999999998 15.335999999999999 -16.011Q16.119 -14.634 16.119 -12.852Q16.119 -11.205 15.363 -9.8415Q14.607 -8.478 13.041 -7.641Q11.475 -6.804 9.153 -6.804ZM11.421 -12.852Q11.421 -13.986 10.773 -14.607Q10.125 -15.228 8.802 -15.228H6.291V-10.475999999999999H8.802Q10.125 -10.475999999999999 10.773 -11.097Q11.421 -11.718 11.421 -12.852Z M33.399 -15.065999999999999V0.0H28.781999999999996V-2.052Q28.08 -1.053 26.8785 -0.44549999999999995Q25.677 0.162 24.218999999999998 0.162Q22.491 0.162 21.168 -0.6075Q19.845 -1.377 19.116 -2.835Q18.387 -4.293 18.387 -6.264V-15.065999999999999H22.976999999999997V-6.885Q22.976999999999997 -5.373 23.759999999999998 -4.536Q24.543 -3.699 25.866 -3.699Q27.216 -3.699 27.999 -4.536Q28.781999999999996 -5.373 28.781999999999996 -6.885V-15.065999999999999Z M46.062 -15.228V-10.341H44.793Q43.065 -10.341 42.201 -9.5985Q41.337 -8.856 41.337 -6.993V0.0H36.72V-15.065999999999999H41.337V-12.555Q42.147 -13.797 43.361999999999995 -14.5125Q44.577 -15.228 46.062 -15.228Z M57.617999999999995 -15.228V-10.341H56.349Q54.620999999999995 -10.341 53.757 -9.5985Q52.893 -8.856 52.893 -6.993V0.0H48.275999999999996V-15.065999999999999H52.893V-12.555Q53.702999999999996 -13.797 54.91799999999999 -14.5125Q56.132999999999996 -15.228 57.617999999999995 -15.228Z" fill="#1f2937"/><path d="M72.17099999999999 -18.954V-15.254999999999999H64.449V-11.259H70.22699999999999V-7.668H64.449V0.0H59.831999999999994V-18.954Z M89.478 -15.065999999999999V0.0H84.86099999999999V-2.052Q84.15899999999999 -1.053 82.9575 -0.44549999999999995Q81.756 0.162 80.29799999999999 0.162Q78.57 0.162 77.24699999999999 -0.6075Q75.92399999999999 -1.377 75.195 -2.835Q74.466 -4.293 74.466 -6.264V-15.065999999999999H79.056V-6.885Q79.056 -5.373 79.839 -4.536Q80.62199999999999 -3.699 81.945 -3.699Q83.29499999999999 -3.699 84.07799999999999 -4.536Q84.86099999999999 -5.373 84.86099999999999 -6.885V-15.065999999999999Z M106.92 -6.426H96.471Q96.579 -5.022 97.37549999999999 -4.2795000000000005Q98.172 -3.537 99.333 -3.537Q101.061 -3.537 101.736 -4.995H106.65Q106.272 -3.51 105.2865 -2.322Q104.301 -1.134 102.816 -0.45899999999999996Q101.331 0.216 99.495 0.216Q97.281 0.216 95.553 -0.729Q93.825 -1.674 92.85300000000001 -3.4290000000000003Q91.881 -5.184 91.881 -7.5329999999999995Q91.881 -9.882 92.8395 -11.637Q93.798 -13.392 95.52600000000001 -14.337Q97.254 -15.282 99.495 -15.282Q101.682 -15.282 103.38300000000001 -14.364Q105.084 -13.446 106.0425 -11.745000000000001Q107.001 -10.044 107.001 -7.776Q107.001 -7.128 106.92 -6.426ZM102.276 -8.991Q102.276 -10.179 101.46600000000001 -10.881Q100.656 -11.583 99.441 -11.583Q98.28 -11.583 97.48349999999999 -10.908000000000001Q96.687 -10.233 96.498 -8.991Z M114.048 -19.98V0.0H109.43100000000001V-19.98Z" fill="#ff6f3c"/></g>
  <rect x="60.5" y="114" width="22" height="2.4" rx="1.2" fill="#ff6f3c"/>
  <path d="M3.3712 -6.0544Q4.3258 -6.0544 5.0697 -5.5857Q5.8136 -5.117 6.149 -4.257H4.9708Q4.7386 -4.73 4.3258 -4.9622Q3.913 -5.1944 3.3712 -5.1944Q2.7778 -5.1944 2.3134 -4.9277999999999995Q1.849 -4.6612 1.5867 -4.1624Q1.3244 -3.6636 1.3244 -3.0014Q1.3244 -2.3392 1.5867 -1.8403999999999998Q1.849 -1.3416 2.3134 -1.0707Q2.7778 -0.7998 3.3712 -0.7998Q3.913 -0.7998 4.3258 -1.032Q4.7386 -1.2642 4.9708 -1.7372H6.149Q5.8136 -0.8772 5.0697 -0.4128Q4.3258 0.0516 3.3712 0.0516Q2.5284 0.0516 1.8317999999999999 -0.3397Q1.1352 -0.731 0.7267 -1.4276Q0.3182 -2.1242 0.3182 -3.0014Q0.3182 -3.8786 0.7267 -4.5752Q1.1352 -5.2718 1.8361 -5.6631Q2.537 -6.0544 3.3712 -6.0544Z M12.7962 -1.2212H10.293600000000001L9.8636 0.0H8.840200000000001L10.9816 -5.9856H12.116800000000001L14.2582 0.0H13.2262ZM12.521 -2.021 11.5492 -4.7988 10.5688 -2.021Z M20.9484 -5.977V-5.1772H19.3574V0.0H18.377V-5.1772H16.7774V-5.977Z  M32.884 0.0H31.903599999999997L28.953799999999998 -4.4634V0.0H27.973399999999998V-5.9856H28.953799999999998L31.903599999999997 -1.5308V-5.9856H32.884Z M37.0458 -5.977V-2.1672Q37.0458 -1.4878 37.402699999999996 -1.1438Q37.7596 -0.7998 38.396 -0.7998Q39.041000000000004 -0.7998 39.39790000000001 -1.1438Q39.7548 -1.4878 39.7548 -2.1672V-5.977H40.7352V-2.1844Q40.7352 -1.4534 40.417 -0.946Q40.098800000000004 -0.4386 39.5656 -0.18919999999999998Q39.0324 0.060200000000000004 38.3874 0.060200000000000004Q37.7424 0.060200000000000004 37.2135 -0.18919999999999998Q36.6846 -0.4386 36.375 -0.946Q36.065400000000004 -1.4534 36.065400000000004 -2.1844V-5.977Z M47.769400000000005 -5.977V-5.1772H46.1784V0.0H45.19800000000001V-5.1772H43.598400000000005V-5.977Z M53.763000000000005 0.0 52.38700000000001 -2.3908H51.6388V0.0H50.65840000000001V-5.977H52.72240000000001Q53.4104 -5.977 53.8877 -5.7362Q54.365 -5.4954 54.6015 -5.091200000000001Q54.83800000000001 -4.687 54.83800000000001 -4.1882Q54.83800000000001 -3.6034 54.49830000000001 -3.1261Q54.15860000000001 -2.6488 53.4534 -2.4768L54.93260000000001 0.0ZM51.6388 -3.1734H52.72240000000001Q53.272800000000004 -3.1734 53.5523 -3.4486Q53.8318 -3.7238 53.8318 -4.1882Q53.8318 -4.6526 53.5566 -4.914899999999999Q53.281400000000005 -5.1772 52.72240000000001 -5.1772H51.6388Z M58.974000000000004 -5.977V0.0H57.99360000000001V-5.977Z M66.0254 -5.977V-5.1772H64.43440000000001V0.0H63.45400000000001V-5.1772H61.854400000000005V-5.977Z M69.8948 -5.977V0.0H68.9144V-5.977Z M72.75800000000001 -3.0014Q72.75800000000001 -3.8786 73.16650000000001 -4.5752Q73.575 -5.2718 74.27590000000001 -5.6631Q74.97680000000001 -6.0544 75.811 -6.0544Q76.6538 -6.0544 77.35470000000001 -5.6631Q78.0556 -5.2718 78.4598 -4.5752Q78.864 -3.8786 78.864 -3.0014Q78.864 -2.1242 78.4598 -1.4233Q78.0556 -0.7224 77.35470000000001 -0.3311Q76.6538 0.060200000000000004 75.811 0.060200000000000004Q74.97680000000001 0.060200000000000004 74.27590000000001 -0.3311Q73.575 -0.7224 73.16650000000001 -1.4233Q72.75800000000001 -2.1242 72.75800000000001 -3.0014ZM77.85780000000001 -3.0014Q77.85780000000001 -3.6636 77.59550000000002 -4.1624Q77.3332 -4.6612 76.86880000000001 -4.9277999999999995Q76.40440000000001 -5.1944 75.811 -5.1944Q75.2176 -5.1944 74.7532 -4.9277999999999995Q74.28880000000001 -4.6612 74.0265 -4.1624Q73.7642 -3.6636 73.7642 -3.0014Q73.7642 -2.3392 74.0265 -1.8361Q74.28880000000001 -1.333 74.7532 -1.0621Q75.2176 -0.7912 75.811 -0.7912Q76.40440000000001 -0.7912 76.86880000000001 -1.0621Q77.3332 -1.333 77.59550000000002 -1.8361Q77.85780000000001 -2.3392 77.85780000000001 -3.0014Z M86.6378 0.0H85.6574L82.7076 -4.4634V0.0H81.7272V-5.9856H82.7076L85.6574 -1.5308V-5.9856H86.6378Z" fill="#6b7280" transform="translate(27.86 130)"/>
</svg>
